<?xml version="1.0" encoding="utf-8"?><!-- Uploaded to: SVG Repo, www.svgrepo.com, Generator: SVG Repo Mixer Tools -->
<svg width="800px" height="800px" viewBox="0 0 400 400" fill="none" xmlns="http://www.w3.org/2000/svg">
<path d="M263.766 101.035C245.553 151.078 286.476 159.542 286.476 96" stroke="#000000" stroke-opacity="0.9" stroke-width="16" stroke-linecap="round" stroke-linejoin="round"/>
<path d="M310.429 104.871C410.28 102.968 379.768 142.222 294.989 142.222C294.989 174.504 291.327 199.817 284.002 218.159C273.014 245.672 265.872 304 270.267 304" stroke="#000000" stroke-opacity="0.9" stroke-width="16" stroke-linecap="round" stroke-linejoin="round"/>
<path d="M238.286 129.016C201.767 167.279 126.392 133.181 92.6196 166.434" stroke="#000000" stroke-opacity="0.9" stroke-width="16" stroke-linecap="round" stroke-linejoin="round"/>
<path d="M91.5115 178.54C101.351 210.762 93.4998 236.141 79.4766 264.381" stroke="#000000" stroke-opacity="0.9" stroke-width="16" stroke-linecap="round" stroke-linejoin="round"/>
<path d="M79.4766 264.381C79.8225 276.531 82.0351 297.33 82.7623 304" stroke="#000000" stroke-opacity="0.9" stroke-width="16" stroke-linecap="round" stroke-linejoin="round"/>
<path d="M83.857 173.037C55.9091 186.868 43.0796 223.454 28 241.27" stroke="#000000" stroke-opacity="0.9" stroke-width="16" stroke-linecap="round" stroke-linejoin="round"/>
<path d="M361.578 114.593C361.506 115.115 360.011 114.593 359.229 114.593" stroke="#000000" stroke-opacity="0.9" stroke-width="16" stroke-linecap="round" stroke-linejoin="round"/>
<path d="M232.932 141.122C251.164 141.744 230.619 167.375 230.619 145.526" stroke="#000000" stroke-opacity="0.9" stroke-width="16" stroke-linecap="round" stroke-linejoin="round"/>
<path d="M234.945 175.238C240.301 181.76 225.142 189.048 226.301 179.316" stroke="#000000" stroke-opacity="0.9" stroke-width="16" stroke-linecap="round" stroke-linejoin="round"/>
<path d="M269.908 176.339C278.514 177.706 268.541 185.25 265.667 176.783" stroke="#000000" stroke-opacity="0.9" stroke-width="16" stroke-linecap="round" stroke-linejoin="round"/>
<path d="M188.628 181.841C195.29 188.022 176.651 192.308 184.309 183.216" stroke="#000000" stroke-opacity="0.9" stroke-width="16" stroke-linecap="round" stroke-linejoin="round"/>
<path d="M130.953 163.29C148.203 161.241 130.953 180.079 130.953 167.679" stroke="#000000" stroke-opacity="0.9" stroke-width="16" stroke-linecap="round" stroke-linejoin="round"/>
<path d="M160.524 185.355C159.248 194.145 149.197 190.765 159.998 184.042" stroke="#000000" stroke-opacity="0.9" stroke-width="16" stroke-linecap="round" stroke-linejoin="round"/>
<path d="M109.259 204.909C114.764 211.203 92.0608 211.707 108.653 200.55" stroke="#000000" stroke-opacity="0.9" stroke-width="16" stroke-linecap="round" stroke-linejoin="round"/>
<path d="M311.765 111.407C319.099 95.2083 310.684 115.231 313.576 105.015" stroke="#000000" stroke-opacity="0.9" stroke-width="16" stroke-linecap="round" stroke-linejoin="round"/>
<path d="M209.809 199.173C209.635 204.327 200.855 203.792 205.888 198.349" stroke="#000000" stroke-opacity="0.9" stroke-width="16" stroke-linecap="round" stroke-linejoin="round"/>
<path d="M205.879 154.086C212.438 157.828 205.919 156.93 203.237 155.72" stroke="#000000" stroke-opacity="0.9" stroke-width="16" stroke-linecap="round" stroke-linejoin="round"/>
<path d="M111.24 231.91C111.15 230.935 113.428 231.183 114.523 230.82" stroke="#000000" stroke-opacity="0.9" stroke-width="16" stroke-linecap="round" stroke-linejoin="round"/>
</svg>